<svg width="297" height="31" viewBox="0 0 297 31" fill="none" xmlns="http://www.w3.org/2000/svg">
<path d="M8.87516 30.6C6.58182 30.6 4.68849 30.0133 3.19516 28.84C1.71516 27.6667 0.661823 26.08 0.0351562 24.08L5.39516 22.8C5.51516 23.5333 5.90182 24.1733 6.55516 24.72C7.20849 25.2533 7.90182 25.52 8.63516 25.52C9.14182 25.52 9.68182 25.38 10.2552 25.1C10.8418 24.82 11.2618 24.3733 11.5152 23.76C11.6752 23.3733 11.7685 22.9 11.7952 22.34C11.8218 21.78 11.8352 21.1333 11.8352 20.4V1.2H17.3552V20.4C17.3552 21.32 17.3485 22.12 17.3352 22.8C17.3352 23.48 17.2685 24.12 17.1352 24.72C17.0152 25.3067 16.7685 25.92 16.3952 26.56C15.5818 27.9733 14.5218 29 13.2152 29.64C11.9085 30.28 10.4618 30.6 8.87516 30.6ZM29.343 30.6C27.7963 30.6 26.483 30.3067 25.403 29.72C24.3363 29.12 23.523 28.3267 22.963 27.34C22.4163 26.34 22.143 25.24 22.143 24.04C22.143 23.04 22.2963 22.1267 22.603 21.3C22.9096 20.4733 23.403 19.7467 24.083 19.12C24.7763 18.48 25.703 17.9467 26.863 17.52C27.663 17.2267 28.6163 16.9667 29.723 16.74C30.8296 16.5133 32.083 16.3 33.483 16.1C34.883 15.8867 36.423 15.6533 38.103 15.4L36.143 16.48C36.143 15.2 35.8363 14.26 35.223 13.66C34.6096 13.06 33.583 12.76 32.143 12.76C31.343 12.76 30.5096 12.9533 29.643 13.34C28.7763 13.7267 28.1696 14.4133 27.823 15.4L22.903 13.84C23.4496 12.0533 24.4763 10.6 25.983 9.48C27.4896 8.36 29.543 7.8 32.143 7.8C34.0496 7.8 35.743 8.09333 37.223 8.68C38.703 9.26666 39.823 10.28 40.583 11.72C41.0096 12.52 41.263 13.32 41.343 14.12C41.423 14.92 41.463 15.8133 41.463 16.8V30H36.703V25.56L37.383 26.48C36.3296 27.9333 35.1896 28.9867 33.963 29.64C32.7496 30.28 31.2096 30.6 29.343 30.6ZM30.503 26.32C31.503 26.32 32.343 26.1467 33.023 25.8C33.7163 25.44 34.263 25.0333 34.663 24.58C35.0763 24.1267 35.3563 23.7467 35.503 23.44C35.783 22.8533 35.943 22.1733 35.983 21.4C36.0363 20.6133 36.063 19.96 36.063 19.44L37.663 19.84C36.0496 20.1067 34.743 20.3333 33.743 20.52C32.743 20.6933 31.9363 20.8533 31.323 21C30.7096 21.1467 30.1696 21.3067 29.703 21.48C29.1696 21.6933 28.7363 21.9267 28.403 22.18C28.083 22.42 27.843 22.6867 27.683 22.98C27.5363 23.2733 27.463 23.6 27.463 23.96C27.463 24.4533 27.583 24.88 27.823 25.24C28.0763 25.5867 28.4296 25.8533 28.883 26.04C29.3363 26.2267 29.8763 26.32 30.503 26.32ZM47.0633 5.4V0.599999H52.5033V5.4H47.0633ZM47.0633 30V8.4H52.5033V30H47.0633ZM58.8992 30V0.599999H64.3392V30H58.8992ZM78.7752 30.6C76.0552 30.6 73.8552 29.9867 72.1752 28.76C70.5085 27.52 69.4952 25.7733 69.1352 23.52L74.6952 22.68C74.9218 23.6933 75.4218 24.4867 76.1952 25.06C76.9818 25.6333 77.9752 25.92 79.1752 25.92C80.1618 25.92 80.9218 25.7333 81.4552 25.36C81.9885 24.9733 82.2552 24.44 82.2552 23.76C82.2552 23.3333 82.1485 22.9933 81.9352 22.74C81.7218 22.4733 81.2418 22.2133 80.4952 21.96C79.7618 21.7067 78.6152 21.3733 77.0552 20.96C75.2952 20.5067 73.8885 20 72.8352 19.44C71.7818 18.88 71.0218 18.2133 70.5552 17.44C70.0885 16.6533 69.8552 15.7067 69.8552 14.6C69.8552 13.2133 70.2085 12.0133 70.9152 11C71.6218 9.97333 72.6152 9.18667 73.8952 8.64C75.1885 8.08 76.7085 7.8 78.4552 7.8C80.1485 7.8 81.6485 8.06 82.9552 8.58C84.2618 9.1 85.3152 9.84 86.1152 10.8C86.9285 11.76 87.4285 12.8933 87.6152 14.2L82.0552 15.2C81.9618 14.4 81.6152 13.7667 81.0152 13.3C80.4152 12.8333 79.6018 12.56 78.5752 12.48C77.5752 12.4133 76.7685 12.5467 76.1552 12.88C75.5552 13.2133 75.2552 13.6933 75.2552 14.32C75.2552 14.6933 75.3818 15.0067 75.6352 15.26C75.9018 15.5133 76.4418 15.7733 77.2552 16.04C78.0818 16.3067 79.3352 16.6533 81.0152 17.08C82.6552 17.5067 83.9685 18.0067 84.9552 18.58C85.9552 19.14 86.6818 19.82 87.1352 20.62C87.5885 21.4067 87.8152 22.36 87.8152 23.48C87.8152 25.6933 87.0152 27.4333 85.4152 28.7C83.8152 29.9667 81.6018 30.6 78.7752 30.6ZM101.93 30.6C99.7568 30.6 97.8502 30.1133 96.2102 29.14C94.5702 28.1667 93.2902 26.8267 92.3702 25.12C91.4635 23.4 91.0102 21.4267 91.0102 19.2C91.0102 16.9467 91.4768 14.9667 92.4102 13.26C93.3435 11.54 94.6302 10.2 96.2702 9.24C97.9102 8.28 99.7968 7.8 101.93 7.8C104.103 7.8 106.01 8.28667 107.65 9.26C109.303 10.2333 110.59 11.58 111.51 13.3C112.43 15.0067 112.89 16.9733 112.89 19.2C112.89 21.44 112.423 23.42 111.49 25.14C110.57 26.8467 109.283 28.1867 107.63 29.16C105.99 30.12 104.09 30.6 101.93 30.6ZM101.93 25.52C103.677 25.52 104.977 24.9333 105.83 23.76C106.697 22.5733 107.13 21.0533 107.13 19.2C107.13 17.28 106.69 15.7467 105.81 14.6C104.943 13.4533 103.65 12.88 101.93 12.88C100.743 12.88 99.7702 13.1467 99.0102 13.68C98.2502 14.2133 97.6835 14.9533 97.3102 15.9C96.9502 16.8467 96.7702 17.9467 96.7702 19.2C96.7702 21.1333 97.2035 22.6733 98.0702 23.82C98.9502 24.9533 100.237 25.52 101.93 25.52ZM132.008 30V19.8C132.008 19.3067 131.982 18.68 131.928 17.92C131.875 17.1467 131.708 16.3733 131.428 15.6C131.148 14.8267 130.688 14.18 130.048 13.66C129.422 13.14 128.528 12.88 127.368 12.88C126.902 12.88 126.402 12.9533 125.868 13.1C125.335 13.2467 124.835 13.5333 124.368 13.96C123.902 14.3733 123.515 14.9867 123.208 15.8C122.915 16.6133 122.768 17.6933 122.768 19.04L119.648 17.56C119.648 15.8533 119.995 14.2533 120.688 12.76C121.382 11.2667 122.422 10.06 123.808 9.14C125.208 8.22 126.968 7.76 129.088 7.76C130.782 7.76 132.162 8.04667 133.228 8.62C134.295 9.19333 135.122 9.92 135.708 10.8C136.308 11.68 136.735 12.6 136.988 13.56C137.242 14.5067 137.395 15.3733 137.448 16.16C137.502 16.9467 137.528 17.52 137.528 17.88V30H132.008ZM117.248 30V8.4H122.088V15.56H122.768V30H117.248Z" fill="white"/>
<path d="M156.926 30L148.126 1.2H153.726L160.926 24.88L168.246 1.2H173.846L165.046 30H156.926ZM176.477 5.4V0.599999H181.917V5.4H176.477ZM176.477 30V8.4H181.917V30H176.477ZM197.433 30.6C195.193 30.6 193.273 30.1 191.673 29.1C190.073 28.1 188.847 26.74 187.993 25.02C187.14 23.3 186.713 21.36 186.713 19.2C186.713 17.0133 187.153 15.06 188.033 13.34C188.927 11.62 190.18 10.2667 191.793 9.28C193.407 8.29333 195.313 7.8 197.513 7.8C200.06 7.8 202.193 8.44667 203.913 9.74C205.647 11.02 206.753 12.7733 207.233 15L201.793 16.44C201.473 15.32 200.913 14.4467 200.113 13.82C199.327 13.1933 198.433 12.88 197.433 12.88C196.287 12.88 195.347 13.16 194.613 13.72C193.88 14.2667 193.34 15.02 192.993 15.98C192.647 16.9267 192.473 18 192.473 19.2C192.473 21.08 192.887 22.6067 193.713 23.78C194.553 24.94 195.793 25.52 197.433 25.52C198.66 25.52 199.593 25.24 200.233 24.68C200.873 24.12 201.353 23.32 201.673 22.28L207.233 23.44C206.62 25.7333 205.46 27.5 203.753 28.74C202.047 29.98 199.94 30.6 197.433 30.6ZM220.688 30.6C218.474 30.6 216.521 30.1267 214.828 29.18C213.148 28.22 211.828 26.9067 210.868 25.24C209.921 23.56 209.448 21.64 209.448 19.48C209.448 17.12 209.914 15.0667 210.848 13.32C211.781 11.5733 213.068 10.22 214.708 9.26C216.348 8.28667 218.234 7.8 220.368 7.8C222.634 7.8 224.561 8.33333 226.148 9.4C227.734 10.4667 228.908 11.9667 229.668 13.9C230.428 15.8333 230.694 18.1067 230.468 20.72H225.088V18.72C225.088 16.52 224.734 14.94 224.028 13.98C223.334 13.0067 222.194 12.52 220.608 12.52C218.754 12.52 217.388 13.0867 216.508 14.22C215.641 15.34 215.208 17 215.208 19.2C215.208 21.2133 215.641 22.7733 216.508 23.88C217.388 24.9733 218.674 25.52 220.368 25.52C221.434 25.52 222.348 25.2867 223.108 24.82C223.868 24.3533 224.448 23.68 224.848 22.8L230.288 24.36C229.474 26.3333 228.188 27.8667 226.428 28.96C224.681 30.0533 222.768 30.6 220.688 30.6ZM213.528 20.72V16.68H227.848V20.72H213.528ZM249.118 30V19.8C249.118 19.3067 249.091 18.68 249.038 17.92C248.984 17.1467 248.818 16.3733 248.538 15.6C248.258 14.8267 247.798 14.18 247.158 13.66C246.531 13.14 245.638 12.88 244.478 12.88C244.011 12.88 243.511 12.9533 242.978 13.1C242.444 13.2467 241.944 13.5333 241.478 13.96C241.011 14.3733 240.624 14.9867 240.318 15.8C240.024 16.6133 239.878 17.6933 239.878 19.04L236.758 17.56C236.758 15.8533 237.104 14.2533 237.798 12.76C238.491 11.2667 239.531 10.06 240.918 9.14C242.318 8.22 244.078 7.76 246.198 7.76C247.891 7.76 249.271 8.04667 250.338 8.62C251.404 9.19333 252.231 9.92 252.818 10.8C253.418 11.68 253.844 12.6 254.098 13.56C254.351 14.5067 254.504 15.3733 254.558 16.16C254.611 16.9467 254.638 17.52 254.638 17.88V30H249.118ZM234.358 30V8.4H239.198V15.56H239.878V30H234.358ZM272.787 30C271.294 30.28 269.827 30.4 268.387 30.36C266.961 30.3333 265.681 30.0867 264.547 29.62C263.427 29.14 262.574 28.3733 261.987 27.32C261.454 26.3333 261.174 25.3333 261.147 24.32C261.121 23.2933 261.107 22.1333 261.107 20.84V2.4H266.547V20.52C266.547 21.36 266.554 22.12 266.567 22.8C266.594 23.4667 266.734 24 266.987 24.4C267.467 25.16 268.234 25.5733 269.287 25.64C270.341 25.7067 271.507 25.6533 272.787 25.48V30ZM257.427 12.6V8.4H272.787V12.6H257.427ZM286.469 30.6C284.256 30.6 282.302 30.1267 280.609 29.18C278.929 28.22 277.609 26.9067 276.649 25.24C275.702 23.56 275.229 21.64 275.229 19.48C275.229 17.12 275.696 15.0667 276.629 13.32C277.562 11.5733 278.849 10.22 280.489 9.26C282.129 8.28667 284.016 7.8 286.149 7.8C288.416 7.8 290.342 8.33333 291.929 9.4C293.516 10.4667 294.689 11.9667 295.449 13.9C296.209 15.8333 296.476 18.1067 296.249 20.72H290.869V18.72C290.869 16.52 290.516 14.94 289.809 13.98C289.116 13.0067 287.976 12.52 286.389 12.52C284.536 12.52 283.169 13.0867 282.289 14.22C281.422 15.34 280.989 17 280.989 19.2C280.989 21.2133 281.422 22.7733 282.289 23.88C283.169 24.9733 284.456 25.52 286.149 25.52C287.216 25.52 288.129 25.2867 288.889 24.82C289.649 24.3533 290.229 23.68 290.629 22.8L296.069 24.36C295.256 26.3333 293.969 27.8667 292.209 28.96C290.462 30.0533 288.549 30.6 286.469 30.6ZM279.309 20.72V16.68H293.629V20.72H279.309Z" fill="#004AAD"/>
</svg>
