<svg width="10" height="20" viewBox="0 0 10 20" fill="none" xmlns="http://www.w3.org/2000/svg">
<path fill-rule="evenodd" clip-rule="evenodd" d="M7.50005 17.5C7.50005 18.163 7.23666 18.7989 6.76782 19.2678C6.29898 19.7366 5.66309 20 5.00005 20C4.33701 20 3.70113 19.7366 3.23229 19.2678C2.76344 18.7989 2.50005 18.163 2.50005 17.5C2.50005 16.837 2.76344 16.2011 3.23229 15.7322C3.70113 15.2634 4.33701 15 5.00005 15C5.66309 15 6.29898 15.2634 6.76782 15.7322C7.23666 16.2011 7.50005 16.837 7.50005 17.5ZM9.72505 6.44875C9.54927 6.27319 9.31099 6.17457 9.06255 6.17457C8.81411 6.17457 8.57583 6.27319 8.40005 6.44875L5.93755 8.91125V0.9375C5.93755 0.68886 5.83878 0.450403 5.66296 0.274587C5.48715 0.098772 5.24869 0 5.00005 0C4.75141 0 4.51295 0.098772 4.33714 0.274587C4.16132 0.450403 4.06255 0.68886 4.06255 0.9375V8.91125L1.60005 6.44875C1.42233 6.28315 1.18728 6.193 0.944399 6.19728C0.701523 6.20157 0.469791 6.29996 0.298025 6.47172C0.126259 6.64349 0.0278688 6.87522 0.0235836 7.1181C0.0192983 7.36097 0.109452 7.59603 0.275052 7.77375L4.33755 11.8363L5.00005 12.5L5.66255 11.8375L9.72505 7.775C9.81217 7.68794 9.88128 7.58456 9.92843 7.47078C9.97558 7.357 9.99985 7.23504 9.99985 7.11187C9.99985 6.98871 9.97558 6.86675 9.92843 6.75297C9.88128 6.63919 9.81217 6.53581 9.72505 6.44875Z" fill="#31C5F0"/>
</svg>
