<svg width="48" height="40" viewBox="0 0 48 40" fill="none" xmlns="http://www.w3.org/2000/svg">
<path d="M0 3.33333C0 2.44928 0.312728 1.60143 0.869387 0.976311C1.42605 0.35119 2.18104 0 2.96827 0H44.5241C45.3113 0 46.0663 0.35119 46.623 0.976311C47.1796 1.60143 47.4924 2.44928 47.4924 3.33333C47.4924 4.21739 47.1796 5.06523 46.623 5.69036C46.0663 6.31548 45.3113 6.66667 44.5241 6.66667H2.96827C2.18104 6.66667 1.42605 6.31548 0.869387 5.69036C0.312728 5.06523 0 4.21739 0 3.33333ZM0 20C0 19.1159 0.312728 18.2681 0.869387 17.643C1.42605 17.0179 2.18104 16.6667 2.96827 16.6667H44.5241C45.3113 16.6667 46.0663 17.0179 46.623 17.643C47.1796 18.2681 47.4924 19.1159 47.4924 20C47.4924 20.8841 47.1796 21.7319 46.623 22.357C46.0663 22.9821 45.3113 23.3333 44.5241 23.3333H2.96827C2.18104 23.3333 1.42605 22.9821 0.869387 22.357C0.312728 21.7319 0 20.8841 0 20ZM0 36.6667C0 35.7826 0.312728 34.9348 0.869387 34.3096C1.42605 33.6845 2.18104 33.3333 2.96827 33.3333H44.5241C45.3113 33.3333 46.0663 33.6845 46.623 34.3096C47.1796 34.9348 47.4924 35.7826 47.4924 36.6667C47.4924 37.5507 47.1796 38.3986 46.623 39.0237C46.0663 39.6488 45.3113 40 44.5241 40H2.96827C2.18104 40 1.42605 39.6488 0.869387 39.0237C0.312728 38.3986 0 37.5507 0 36.6667Z" fill="#0D0D0D"/>
</svg>
